HIERARCHY
ROOT Hips
{
  OFFSET -125.086 92.215 135.881
  CHANNELS 6 Xposition Yposition Zposition Zrotation Xrotation Yrotation
  JOINT LeftUpLeg
  {
    OFFSET 8.64259 1.95398 -2.38835
    CHANNELS 3 Zrotation Xrotation Yrotation
    JOINT LeftLeg
    {
      OFFSET 43.7702 0 0
      CHANNELS 3 Zrotation Xrotation Yrotation
      JOINT LeftFoot
      {
        OFFSET 40.6238 0 0
        CHANNELS 3 Zrotation Xrotation Yrotation
        JOINT LeftToeBase
        {
          OFFSET 12.7242 0 0
          CHANNELS 3 Zrotation Xrotation Yrotation
          End Site
          {
            OFFSET 0 0 0
          }
        }
      }
    }
  }
  JOINT RightUpLeg
  {
    OFFSET -8.2249 1.95398 -2.59336
    CHANNELS 3 Zrotation Xrotation Yrotation
    JOINT RightLeg
    {
      OFFSET 43.5653 0 0
      CHANNELS 3 Zrotation Xrotation Yrotation
      JOINT RightFoot
      {
        OFFSET 40.6238 0 0
        CHANNELS 3 Zrotation Xrotation Yrotation
        JOINT RightToeBase
        {
          OFFSET 12.7242 0 0
          CHANNELS 3 Zrotation Xrotation Yrotation
          End Site
          {
            OFFSET 0 0 0
          }
        }
      }
    }
  }
  JOINT Spine
  {
    OFFSET 0.165834 0.87714 6.61349
    CHANNELS 3 Zrotation Xrotation Yrotation
    JOINT Spine1
    {
      OFFSET 7.38963 1.71661e-005 0
      CHANNELS 3 Zrotation Xrotation Yrotation
      JOINT Spine2
      {
        OFFSET 11.9445 1.14441e-005 0
        CHANNELS 3 Zrotation Xrotation Yrotation
        JOINT Spine3
        {
          OFFSET 14.7254 4.19617e-005 0
          CHANNELS 3 Zrotation Xrotation Yrotation
          JOINT Spine4
          {
            OFFSET 10.9679 0 0
            CHANNELS 3 Zrotation Xrotation Yrotation
            JOINT RightShoulder
            {
              OFFSET 2.46616 -1.6653 3.69651
              CHANNELS 3 Zrotation Xrotation Yrotation
              JOINT RightArm
              {
                OFFSET 13.0012 0 0
                CHANNELS 3 Zrotation Xrotation Yrotation
                JOINT RightForeArm
                {
                  OFFSET 28.7848 1.52588e-005 0
                  CHANNELS 3 Zrotation Xrotation Yrotation
                  JOINT RightHand
                  {
                    OFFSET 26.5688 1.52588e-005 0
                    CHANNELS 3 Zrotation Xrotation Yrotation
                    End Site
                    {
                      OFFSET 0 0 0
                    }
                  }
                }
              }
            }
            JOINT LeftShoulder
            {
              OFFSET 2.38034 -1.29275 -3.7523
              CHANNELS 3 Zrotation Xrotation Yrotation
              JOINT LeftArm
              {
                OFFSET 16.3182 6.10352e-005 0
                CHANNELS 3 Zrotation Xrotation Yrotation
                JOINT LeftForeArm
                {
                  OFFSET 27.0901 0 0
                  CHANNELS 3 Zrotation Xrotation Yrotation
                  JOINT LeftHand
                  {
                    OFFSET 24.5451 1.52588e-005 0
                    CHANNELS 3 Zrotation Xrotation Yrotation
                    End Site
                    {
                      OFFSET 0 0 0
                    }
                  }
                }
              }
            }
            JOINT Neck
            {
              OFFSET 5.0226 -0.0266342 0
              CHANNELS 3 Zrotation Xrotation Yrotation
              JOINT Head
              {
                OFFSET 6.69363 2.86102e-005 0
                CHANNELS 3 Zrotation Xrotation Yrotation
                End Site
                {
                  OFFSET 0 0 0
                }
              }
            }
          }
        }
      }
    }
  }
}
MOTION
Frames:	15
Frame Time:	0.0416667
-97.2024 84.0562 70.9535 107.938 53.2344 79.4008 179.726 1.93037 91.6713 -83.0472 3.81864 6.28203 53.8278 1.93156 -2.90677 53.7974 -1.54087 5.67649 176.258 34.8524 95.7573 -54.3857 -23.3067 0.711697 60.5169 -3.93442 -4.80366 36.6425 -1.33937 4.11788 -0.598101 8.69694 -91.3555 9.45295 -1.80238 -2.55138 -2.21911 -1.91288 -2.46964 -24.7378 -0.952655 -2.97477 -4.72511 -0.952636 -2.97476 107.044 -46.3358 -74.1952 23.5132 -8.03242 -5.43441 4.55319 -4.93822 -28.0558 -11.4466 -0.00245505 -5.35433 -75.1094 -47.9649 101.128 -26.3492 14.2399 -16.1372 6.15531 19.2768 -48.6514 -4.51677 0.0637058 -12.5968 35.6142 2.67687 2.39798 -26.089 0.550312 4.40435 
-85.4264 85.858 59.3259 106.274 50.6071 79.455 179.075 22.8039 89.397 -97.7812 6.33642 4.40604 56.7924 4.60385 0.133817 51.2072 -1.58366 4.08695 176.533 25.1193 96.6457 -59.8501 -23.8453 -0.202915 72.9465 -12.1745 -7.54314 36.1553 -1.23736 3.46293 0.00330018 8.47242 -91.4484 9.91391 -0.651009 -2.82534 -1.75982 -0.77467 -2.79399 -24.2708 0.227866 -2.89034 -4.25811 0.227854 -2.89035 105.494 -45.2096 -76.6412 23.0497 -18.9366 -18.0065 0.635025 -11.7321 -38.2216 -9.65703 -0.0161802 -5.23579 -74.2614 -47.8001 102.457 -18.3585 6.3572 -13.7536 5.92324 14.2133 -49.627 -1.23202 -0.176138 -12.7675 32.0263 2.87373 5.33786 -25.8468 -0.322009 3.99779 
-73.1144 94.09 48.2836 106.919 52.2084 73.1657 -179.124 35.5031 82.5632 -88.2343 3.95561 2.95969 58.2031 4.48382 -2.67531 50.0725 -1.37643 5.9474 177.4 7.75899 91.705 -45.3443 -18.327 -2.21321 64.3288 -3.65454 6.25789 38.6645 -1.47547 1.3674 0.354905 8.02356 -90.7459 10.8376 0.361708 -1.52178 -0.834196 0.294392 -1.53623 -23.3642 0.802342 -1.34278 -3.35153 0.802337 -1.34279 105.681 -44.436 -76.2733 22.5024 -28.5916 -17.304 -3.88282 -7.25816 -54.9431 -6.19529 0.0688646 -7.25152 -75.105 -45.021 101.289 -12.4923 1.07811 -10.619 2.95719 6.99597 -53.6282 2.23868 -0.385811 -12.017 24.8496 0.235466 8.40571 -24.2609 -2.59785 -1.19797 
-61.7348 101.913 37.7961 105.1 49.3797 73.2925 -178.024 34.9487 79.6564 -67.7897 2.4387 1.12264 60.0002 3.7945 -4.92509 50.3409 -1.42013 5.61466 176.89 2.92341 89.5772 -35.9627 -19.1488 -2.47719 43.853 6.24259 18.8763 38.5091 -1.50148 1.39017 0.604804 7.86137 -90.4779 11.1536 0.981821 -1.04558 -0.517394 0.934875 -1.08778 -23.0538 1.25066 -0.702154 -3.04113 1.25066 -0.702163 105.72 -44.5258 -76.215 17.684 -36.8009 -18.7353 -8.17611 -3.73594 -65.6855 -2.64193 0.0512321 -9.64076 -75.8615 -41.2631 100.208 -11.3384 -5.00915 -0.886788 1.78441 1.81004 -60.8714 7.3179 -0.705836 -11.5403 23.3531 -0.133341 7.75407 -25.0405 -2.52834 -1.53221 
-50.93 104.492 27.7317 103.568 45.3947 75.7869 179.317 28.1328 80.6691 -43.4565 3.2764 0.853708 58.9159 2.73096 -5.31712 51.9802 -1.49827 5.42762 176.139 4.0126 88.55 -26.4841 -11.4306 -1.56863 50.0211 4.26421 17.1144 40.9754 -1.93128 -3.11662 0.866808 8.00938 -90.6081 10.8628 1.44494 -1.34493 -0.808154 1.38435 -1.40723 -23.3471 1.78232 -0.848455 -3.33447 1.78233 -0.848456 105.527 -43.9259 -76.4926 14.9225 -40.4293 -20.378 -10.0989 -0.161501 -72.8467 -1.18583 -0.00685927 -9.26828 -75.7895 -40.1493 100.381 -8.61251 -10.0519 6.41294 -1.50064 -1.82924 -66.4968 13.4126 -0.991044 -10.859 25.6532 1.09313 8.72307 -26.8971 -1.70369 -2.21255 
-40.0006 99.8094 17.8231 103.927 44.3967 77.1839 177.015 24.9223 81.3707 -27.7371 5.47528 1.67512 59.7886 2.98125 -6.50471 49.2787 -1.54358 3.13605 174.885 3.9539 89.0426 -23.3602 -4.02105 0.119795 50.3203 4.04124 18.0484 45.8904 -3.08853 -6.52689 0.882657 8.20742 -90.8075 10.467 1.38788 -1.72789 -1.20449 1.31052 -1.78729 -23.7402 1.84298 -1.23093 -3.72757 1.84297 -1.23094 105.496 -44.1914 -76.5643 13.7714 -40.2125 -21.1657 -9.4625 2.20757 -77.0149 -3.54118 0.0832753 -9.40964 -75.4466 -39.4726 101.003 -8.06283 -14.3679 8.4462 -1.52936 -2.49901 -72.5271 14.8173 -1.08105 -10.9167 23.569 0.907419 8.71838 -24.4081 -1.834 -1.79044 
-28.5616 92.5567 7.82775 107.491 47.5446 77.0223 174.434 21.6342 82.5382 -12.7327 8.40618 2.86231 57.2006 2.68862 -7.06709 49.5537 -1.43292 4.90942 174.035 -3.35224 90.661 -38.411 -7.2327 1.8778 76.5633 -11.142 -1.27212 41.4856 -1.93456 -1.37926 0.602073 8.58093 -91.041 9.71284 0.729364 -2.11465 -1.9597 0.635608 -2.14468 -24.4856 1.33109 -1.79786 -4.473 1.33107 -1.79785 105.916 -45.0654 -75.9276 14.1184 -37.0385 -22.5603 -10.9354 -0.0697743 -74.7602 -7.07749 0.140875 -8.22192 -74.2292 -41.0132 102.987 -10.0286 -14.8629 3.5133 0.962887 -1.69928 -77.1133 12.0551 -1.0567 -12.0322 21.3984 -0.291358 7.54153 -20.1438 -2.63323 -0.865538 
-15.0933 89.7113 -3.49154 100.712 47.4054 82.4782 175.919 23.9666 83.6637 -6.53376 8.81459 1.98373 55.7032 1.73255 -5.69063 46.3054 -1.24495 7.27252 174.336 -9.09789 94.1997 -39.3393 -5.93361 1.34881 77.2214 -9.09455 6.06218 57.64 -5.14179 -3.75702 0.632647 8.02606 -90.6047 10.8301 0.980327 -1.31041 -0.841195 0.921696 -1.35228 -23.3764 1.32887 -0.955217 -3.36371 1.32884 -0.955225 107.153 -47.9642 -74.188 18.0419 -32.7104 -19.7226 -11.2092 -10.4583 -59.7844 -8.66229 0.00719699 -5.55939 -73.4359 -44.8417 103.992 -18.6168 -10.0726 -0.0358946 3.85307 -0.122733 -72.332 7.51943 -0.802535 -12.5776 20.5622 -1.29659 3.15583 -21.078 -2.23622 -0.361069 
-1.6233 87.7344 -15.5086 99.0912 43.9397 81.9098 178.664 32.3888 81.5465 -36.1263 8.79063 1.11707 55.8394 0.956331 2.75729 41.3341 -1.0767 1.13631 171.923 -7.65792 87.3157 -54.5806 -13.3913 -1.25426 55.5254 1.55001 16.8854 51.8853 -3.53649 0.544767 0.510403 7.94901 -89.7044 10.9736 1.15313 0.478425 -0.696942 1.17305 0.427199 -23.2344 0.956021 0.802881 -3.22178 0.956043 0.802888 108.408 -49.5557 -72.3832 23.9569 -24.6595 -16.4093 -8.4543 -26.5057 -40.8083 -6.62285 -0.0128675 -5.36934 -73.7315 -48.5327 103.23 -24.18 -3.99183 -2.96474 4.06516 2.75753 -61.3325 5.01278 -0.584105 -12.0068 27.6057 -1.684 -0.670166 -26.2124 -1.47342 0.560606 
10.7303 86.4731 -25.7909 104.114 45.2244 76.7744 -178.332 26.6291 78.1937 -54.0958 13.6261 0.554297 68.8311 11.2613 12.881 33.0054 -0.319188 -0.547469 172.145 3.52774 83.1637 -86.5628 -16.8967 -3.09066 52.8492 1.19735 8.28209 34.8249 -0.586016 -9.90315 -0.191889 8.52925 -89.1964 9.8104 -0.0182434 1.59223 -1.86156 0.0518425 1.59149 -24.3893 -0.495875 1.51318 -4.37662 -0.495863 1.51318 108.492 -49.643 -72.2617 24.5246 -13.4111 -13.3332 -2.46067 -28.9041 -26.503 -5.20724 -0.130923 -2.82232 -75.4709 -48.6878 100.534 -28.1371 4.48056 -14.4779 5.31129 8.6545 -53.1917 1.78182 -0.431265 -13.5289 32.2163 -1.39518 -2.629 -22.8774 -0.8123 3.44271 
21.3313 91.5317 -35.8667 104.191 47.1808 78.9718 -178.104 15.0728 82.3537 -50.8252 13.8764 2.18793 69.3605 8.93853 5.017 38.2862 -0.840043 0.596182 172.444 21.8208 88.3154 -93.1967 -13.6211 -2.69078 58.3446 -1.09338 11.3779 38.4356 -1.35442 -11.1675 -0.63709 8.37634 -89.4778 10.1349 -1.03135 1.12202 -1.5361 -0.980966 1.16631 -24.0733 -1.32092 0.760174 -4.06069 -1.32092 0.760173 107.896 -48.0814 -73.017 23.0109 -1.41241 -9.3805 1.92796 -28.4984 -12.1003 -9.56663 -0.392029 -0.395041 -76.1474 -48.1435 99.506 -26.2522 14.8739 -24.6084 6.81531 15.0507 -54.4652 -2.34817 -0.0789848 -13.4356 31.3583 0.137746 -1.38135 -24.3428 0.147117 3.15699 
31.9799 98.9233 -45.6461 107.18 53.0255 79.6799 -178.702 9.44921 87.8782 -48.7833 9.57959 4.5804 46.5263 -4.43298 -8.32744 36.1828 -0.716449 1.48491 171.655 25.7551 90.3448 -74.1577 -8.45342 -0.0892667 64.9663 -2.77542 14.0718 45.5019 -3.23764 -12.1094 -0.978059 8.19276 -89.9756 10.4911 -1.93689 0.222189 -1.17847 -1.92523 0.30725 -23.7249 -1.91409 -0.370413 -3.7122 -1.91409 -0.370414 107.543 -46.4497 -73.3939 17.0606 2.26837 -2.09525 5.06041 -24.2168 -4.86992 -8.1884 -0.340799 -0.384623 -76.4555 -46.7954 99.0595 -21.644 25.0339 -32.7089 6.33024 15.5732 -61.4917 -2.49102 -0.0796279 -13.4653 23.069 -0.792039 -2.57233 -23.876 -0.33513 2.39083 
42.1496 101.971 -55.0596 110.038 56.9541 78.1587 179.679 5.66305 88.028 -37.648 9.85894 6.60882 48.6893 -3.47685 -8.91342 36.778 -0.625645 -1.27056 175.537 23.2438 91.119 -47.4101 -5.71773 0.4 65.9074 -2.84318 14.3162 46.5841 -3.4592 -11.1289 -1.02253 8.18555 -90.0223 10.5054 -2.04694 0.137995 -1.164 -2.03886 0.227981 -23.7116 -1.99373 -0.483829 -3.69898 -1.99373 -0.483831 107.275 -44.3994 -73.6024 13.4304 1.09483 6.80232 6.05545 -25.6074 -4.91996 -7.20377 -0.299045 -0.372303 -77.1352 -45.3122 98.0031 -11.5178 33.071 -39.0744 3.13367 8.03573 -76.4744 -3.38812 -0.00238064 -14.2912 19.489 -2.33866 -3.45575 -24.2624 -1.16344 -0.18121 
51.4135 98.1134 -63.6633 112.71 60.2516 74.3537 178.789 5.48611 85.0781 -32.1277 18.2779 6.98906 58.7672 1.62324 -3.90307 35.7861 -0.623529 0.339991 176.963 20.834 88.4359 -22.368 -5.45758 -0.0423957 60.1489 0.119983 18.9937 46.9744 -3.43422 -9.22652 -0.995988 8.46281 -89.8362 9.95198 -1.91064 0.479117 -1.7177 -1.88769 0.562771 -24.264 -1.96626 -0.117472 -4.25139 -1.96627 -0.117481 106.674 -43.2296 -74.4889 11.9571 2.37424 15.0212 4.42587 -24.3936 -6.63066 -7.7712 -0.333791 -0.14977 -78.3077 -42.232 96.0838 -6.69527 32.454 -43.8988 5.96721 0.943537 -89.1778 -5.3364 0.210943 -15.9794 19.7913 -4.0917 -3.3966 -22.7024 -2.59361 -1.90156 
60.656 91.2775 -72.2768 117.362 59.5401 66.4222 178.196 1.43254 80.8732 -46.5316 15.9378 5.73013 78.264 18.1262 10.1608 40.471 -0.928461 1.59374 177.161 21.8064 84.4384 -11.2268 -3.22544 -1.38218 57.2643 0.806377 15.5564 48.7372 -3.73725 -7.72646 -0.971869 8.9743 -89.5269 8.9408 -1.72761 1.05085 -2.72944 -1.67968 1.12588 -25.2734 -1.96357 0.482915 -5.26079 -1.96357 0.48291 107.104 -43.8452 -73.8301 9.84807 5.30033 14.7381 3.57142 -22.0627 -5.31455 -11.0786 -0.623969 1.14654 -77.7991 -42.9927 96.9359 -7.53273 27.7755 -42.5838 7.09084 -0.258641 -91.3901 -2.2688 -0.108706 -16.0462 17.5861 -4.37131 -3.41326 -17.199 -3.1749 -0.670987 
